# xmcd CD database file
#
# Track frame offsets:
#	150
#	40468
#	67502
#	86978
#	107854
#	161689
#	179978
#	200786
#	221774
#	288313
#
# Disc length: 4181 seconds
#
# Revision: 1
# Processed by: cddbd v1.5.2PL0 Copyright (c) Steve Scherf et al.
# Submitted via: CDex 1.51
#
DISCID=9f10530a
DTITLE=Émile Waldteufel - Évocation dramatique de la vie d'Émile Waldteufel  (par Alexandre Sorel)  CD 2-2
DYEAR=1994
DGENRE=Classique
TTITLE0=Les grandes valses et le bal de l'Opéra
TTITLE1=Johann Strauss, Waldteufel, Offenbach
TTITLE2=L'imprésario Rudolf Aronson
TTITLE3=Les Patineurs
TTITLE4=L'Alsace et les roses de Noël 
TTITLE5=La Tour Eiffel et les araignées d'Émile
TTITLE6=Amour et printemps
TTITLE7=L'affaire Dreyfus
TTITLE8=Tournant du siècle, Émile pose sa baguette
TTITLE9=La Guerre de 1914, dernières années
EXTD=YEAR: 1994
EXTT0=
EXTT1=
EXTT2=
EXTT3=
EXTT4=
EXTT5=
EXTT6=
EXTT7=
EXTT8=
EXTT9=
PLAYORDER=
